HIERARCHY
ROOT Hips
{
	OFFSET 0.717293 88.513641 3.606412
	CHANNELS 6 Xposition Yposition Zposition Zrotation Yrotation Xrotation 
	JOINT Spine
	{
		OFFSET -0.000000 8.814246 -2.080107
		CHANNELS 3 Zrotation Yrotation Xrotation
		JOINT Spine1
		{
			OFFSET -0.000000 8.844141 -0.000000
			CHANNELS 3 Zrotation Yrotation Xrotation
			JOINT Spine2
			{
				OFFSET 0.000000 11.682268 0.000000
				CHANNELS 3 Zrotation Yrotation Xrotation
				JOINT Spine3
				{
					OFFSET 0.000000 11.746700 -0.000000
					CHANNELS 3 Zrotation Yrotation Xrotation
					JOINT Neck
					{
						OFFSET 0.000000 17.658264 0.000000
						CHANNELS 3 Zrotation Yrotation Xrotation
						JOINT Neck1
						{
							OFFSET -0.000000 5.101515 -0.000000
							CHANNELS 3 Zrotation Yrotation Xrotation
							JOINT Head
							{
								OFFSET -0.000000 5.101515 -0.000000
								CHANNELS 3 Zrotation Yrotation Xrotation
								JOINT HeadEnd
								{
									OFFSET -0.000000 11.655085 -0.000000
									CHANNELS 3 Zrotation Yrotation Xrotation
									End Site
									{
										OFFSET 0.000000 0.000000 0.000000
									}
								}
							}
						}
					}
					JOINT RightShoulder
					{
						OFFSET -2.625389 11.175210 -0.000000
						CHANNELS 3 Zrotation Yrotation Xrotation
						JOINT RightArm
						{
							OFFSET 0.000000 10.434715 0.000000
							CHANNELS 3 Zrotation Yrotation Xrotation
							JOINT RightForeArm
							{
								OFFSET 0.000000 29.628420 0.000000
								CHANNELS 3 Zrotation Yrotation Xrotation
								JOINT RightHand
								{
									OFFSET 0.000000 22.857611 -0.000000
									CHANNELS 3 Zrotation Yrotation Xrotation
									JOINT RightHandThumb1
									{
										OFFSET -2.867323 3.959563 2.944291
										CHANNELS 3 Zrotation Yrotation Xrotation
										JOINT RightHandThumb2
										{
											OFFSET 0.000000 3.350399 -0.000000
											CHANNELS 3 Zrotation Yrotation Xrotation
											JOINT RightHandThumb3
											{
												OFFSET 0.000000 3.756509 -0.000000
												CHANNELS 3 Zrotation Yrotation Xrotation
												JOINT RightHandThumb4
												{
													OFFSET -0.000000 3.147345 -0.000000
													CHANNELS 3 Zrotation Yrotation Xrotation
													End Site
													{
														OFFSET 0.000000 0.000000 0.000000
													}
												}
											}
										}
									}
									JOINT RightHandIndex1
									{
										OFFSET -0.086752 10.030893 2.345280
										CHANNELS 3 Zrotation Yrotation Xrotation
										JOINT RightHandIndex2
										{
											OFFSET -0.000000 4.061090 -0.000000
											CHANNELS 3 Zrotation Yrotation Xrotation
											JOINT RightHandIndex3
											{
												OFFSET -0.000000 3.248873 0.000000
												CHANNELS 3 Zrotation Yrotation Xrotation
												JOINT RightHandIndex4
												{
													OFFSET -0.000000 2.639709 0.000000
													CHANNELS 3 Zrotation Yrotation Xrotation
													End Site
													{
														OFFSET 0.000000 0.000000 0.000000
													}
												}
											}
										}
									}
									JOINT RightHandMiddle1
									{
										OFFSET 0.104102 9.502952 0.006768
										CHANNELS 3 Zrotation Yrotation Xrotation
										JOINT RightHandMiddle2
										{
											OFFSET 0.000000 4.568727 -0.000000
											CHANNELS 3 Zrotation Yrotation Xrotation
											JOINT RightHandMiddle3
											{
												OFFSET 0.000000 3.654981 -0.000000
												CHANNELS 3 Zrotation Yrotation Xrotation
												JOINT RightHandMiddle4
												{
													OFFSET 0.000000 2.741236 0.000000
													CHANNELS 3 Zrotation Yrotation Xrotation
													End Site
													{
														OFFSET 0.000000 0.000000 0.000000
													}
												}
											}
										}
									}
									JOINT RightHandRing1
									{
										OFFSET 0.086752 8.921708 -2.267442
										CHANNELS 3 Zrotation Yrotation Xrotation
										JOINT RightHandRing2
										{
											OFFSET -0.000000 4.061090 -0.000000
											CHANNELS 3 Zrotation Yrotation Xrotation
											JOINT RightHandRing3
											{
												OFFSET -0.000000 3.654981 0.000000
												CHANNELS 3 Zrotation Yrotation Xrotation
												JOINT RightHandRing4
												{
													OFFSET -0.000000 2.741236 0.000000
													CHANNELS 3 Zrotation Yrotation Xrotation
													End Site
													{
														OFFSET 0.000000 0.000000 0.000000
													}
												}
											}
										}
									}
									JOINT RightHandPinky1
									{
										OFFSET -0.173504 7.976997 -4.467199
										CHANNELS 3 Zrotation Yrotation Xrotation
										JOINT RightHandPinky2
										{
											OFFSET -0.000000 3.350399 -0.000000
											CHANNELS 3 Zrotation Yrotation Xrotation
											JOINT RightHandPinky3
											{
												OFFSET -0.000000 2.842763 0.000000
												CHANNELS 3 Zrotation Yrotation Xrotation
												JOINT RightHandPinky4
												{
													OFFSET 0.000000 2.639709 -0.000000
													CHANNELS 3 Zrotation Yrotation Xrotation
													End Site
													{
														OFFSET 0.000000 0.000000 0.000000
													}
												}
											}
										}
									}
									JOINT RightForeArmEnd
									{
										OFFSET 0.000000 0.000000 0.000000
										CHANNELS 3 Zrotation Yrotation Xrotation
										End Site
										{
											OFFSET 0.000000 0.000000 0.000000
										}
									}
								}
								JOINT RightArmEnd
								{
									OFFSET 0.000000 0.000000 0.000000
									CHANNELS 3 Zrotation Yrotation Xrotation
									End Site
									{
										OFFSET 0.000000 0.000000 0.000000
									}
								}
							}
						}
					}
					JOINT LeftShoulder
					{
						OFFSET 2.625389 11.175210 -0.000000
						CHANNELS 3 Zrotation Yrotation Xrotation
						JOINT LeftArm
						{
							OFFSET 0.000000 10.813635 0.000000
							CHANNELS 3 Zrotation Yrotation Xrotation
							JOINT LeftForeArm
							{
								OFFSET -0.000000 28.724781 -0.000000
								CHANNELS 3 Zrotation Yrotation Xrotation
								JOINT LeftHand
								{
									OFFSET 0.644384 25.716167 -0.328871
									CHANNELS 3 Zrotation Yrotation Xrotation
									JOINT LeftHandThumb1
									{
										OFFSET 2.867323 3.959563 2.944291
										CHANNELS 3 Zrotation Yrotation Xrotation
										JOINT LeftHandThumb2
										{
											OFFSET 0.000000 3.350399 0.000000
											CHANNELS 3 Zrotation Yrotation Xrotation
											JOINT LeftHandThumb3
											{
												OFFSET 0.000000 3.756509 0.000000
												CHANNELS 3 Zrotation Yrotation Xrotation
												JOINT LeftHandThumb4
												{
													OFFSET -0.000000 3.100000 0.000000
													CHANNELS 3 Zrotation Yrotation Xrotation
													End Site
													{
														OFFSET 0.000000 0.000000 0.000000
													}
												}
											}
										}
									}
									JOINT LeftHandIndex1
									{
										OFFSET 0.086752 10.030893 2.345280
										CHANNELS 3 Zrotation Yrotation Xrotation
										JOINT LeftHandIndex2
										{
											OFFSET -0.000000 4.061090 -0.000000
											CHANNELS 3 Zrotation Yrotation Xrotation
											JOINT LeftHandIndex3
											{
												OFFSET -0.000000 3.248873 -0.000000
												CHANNELS 3 Zrotation Yrotation Xrotation
												JOINT LeftHandIndex4
												{
													OFFSET -0.000000 2.639709 -0.000000
													CHANNELS 3 Zrotation Yrotation Xrotation
													End Site
													{
														OFFSET 0.000000 0.000000 0.000000
													}
												}
											}
										}
									}
									JOINT LeftHandMiddle1
									{
										OFFSET -0.104102 9.502952 0.006768
										CHANNELS 3 Zrotation Yrotation Xrotation
										JOINT LeftHandMiddle2
										{
											OFFSET 0.000000 4.568727 -0.000000
											CHANNELS 3 Zrotation Yrotation Xrotation
											JOINT LeftHandMiddle3
											{
												OFFSET 0.000000 3.654981 0.000000
												CHANNELS 3 Zrotation Yrotation Xrotation
												JOINT LeftHandMiddle4
												{
													OFFSET 0.000000 2.741236 0.000000
													CHANNELS 3 Zrotation Yrotation Xrotation
													End Site
													{
														OFFSET 0.000000 0.000000 0.000000
													}
												}
											}
										}
									}
									JOINT LeftHandRing1
									{
										OFFSET -0.086752 8.921708 -2.267442
										CHANNELS 3 Zrotation Yrotation Xrotation
										JOINT LeftHandRing2
										{
											OFFSET -0.000000 4.061090 -0.000000
											CHANNELS 3 Zrotation Yrotation Xrotation
											JOINT LeftHandRing3
											{
												OFFSET 0.000000 3.654981 0.000000
												CHANNELS 3 Zrotation Yrotation Xrotation
												JOINT LeftHandRing4
												{
													OFFSET -0.000000 2.741236 -0.000000
													CHANNELS 3 Zrotation Yrotation Xrotation
													End Site
													{
														OFFSET 0.000000 0.000000 0.000000
													}
												}
											}
										}
									}
									JOINT LeftHandPinky1
									{
										OFFSET 0.173504 7.976997 -4.467199
										CHANNELS 3 Zrotation Yrotation Xrotation
										JOINT LeftHandPinky2
										{
											OFFSET 0.000000 3.350399 -0.000000
											CHANNELS 3 Zrotation Yrotation Xrotation
											JOINT LeftHandPinky3
											{
												OFFSET 0.000000 2.842763 0.000000
												CHANNELS 3 Zrotation Yrotation Xrotation
												JOINT LeftHandPinky4
												{
													OFFSET -0.000000 2.639709 -0.000000
													CHANNELS 3 Zrotation Yrotation Xrotation
													End Site
													{
														OFFSET 0.000000 0.000000 0.000000
													}
												}
											}
										}
									}
									JOINT LeftForeArmEnd
									{
										OFFSET 0.000000 0.000000 0.000000
										CHANNELS 3 Zrotation Yrotation Xrotation
										End Site
										{
											OFFSET 0.000000 0.000000 0.000000
										}
									}
								}
								JOINT LeftArmEnd
								{
									OFFSET 0.000000 0.000000 0.000000
									CHANNELS 3 Zrotation Yrotation Xrotation
									End Site
									{
										OFFSET 0.000000 0.000000 0.000000
									}
								}
							}
						}
					}
				}
			}
		}
	}
	JOINT RightUpLeg
	{
		OFFSET -11.289943 0.000000 -0.000000
		CHANNELS 3 Zrotation Yrotation Xrotation
		JOINT RightLeg
		{
			OFFSET 0.000000 -38.200325 -0.000000
			CHANNELS 3 Zrotation Yrotation Xrotation
			JOINT RightFoot
			{
				OFFSET -0.000000 -39.900856 -0.000000
				CHANNELS 3 Zrotation Yrotation Xrotation
				JOINT RightToeBase
				{
					OFFSET -0.000000 0.000000 15.261641
					CHANNELS 3 Zrotation Yrotation Xrotation
					JOINT RightToeBaseEnd
					{
						OFFSET 0.000000 0.000000 7.370709
						CHANNELS 3 Zrotation Yrotation Xrotation
						End Site
						{
							OFFSET 0.000000 0.000000 0.000000
						}
					}
				}
				JOINT RightLegEnd
				{
					OFFSET 0.000000 0.000000 0.000000
					CHANNELS 3 Zrotation Yrotation Xrotation
					End Site
					{
						OFFSET 0.000000 0.000000 0.000000
					}
				}
			}
			JOINT RightUpLegEnd
			{
				OFFSET 0.000000 0.000000 0.000000
				CHANNELS 3 Zrotation Yrotation Xrotation
				End Site
				{
					OFFSET 0.000000 0.000000 0.000000
				}
			}
		}
	}
	JOINT LeftUpLeg
	{
		OFFSET 11.315661 -0.000000 -0.000000
		CHANNELS 3 Zrotation Yrotation Xrotation
		JOINT LeftLeg
		{
			OFFSET 0.000000 -38.200325 0.000000
			CHANNELS 3 Zrotation Yrotation Xrotation
			JOINT LeftFoot
			{
				OFFSET 0.000000 -39.900856 0.000000
				CHANNELS 3 Zrotation Yrotation Xrotation
				JOINT LeftToeBase
				{
					OFFSET 0.000000 -0.000000 15.261641
					CHANNELS 3 Zrotation Yrotation Xrotation
					JOINT LeftToeBaseEnd
					{
						OFFSET -0.000000 0.000000 7.539996
						CHANNELS 3 Zrotation Yrotation Xrotation
						End Site
						{
							OFFSET 0.000000 0.000000 0.000000
						}
					}
				}
				JOINT LeftLegEnd
				{
					OFFSET 0.000000 0.000000 0.000000
					CHANNELS 3 Zrotation Yrotation Xrotation
					End Site
					{
						OFFSET 0.000000 0.000000 0.000000
					}
				}
			}
			JOINT LeftUpLegEnd
			{
				OFFSET 0.000000 0.000000 0.000000
				CHANNELS 3 Zrotation Yrotation Xrotation
				End Site
				{
					OFFSET 0.000000 0.000000 0.000000
				}
			}
		}
	}
}
MOTION
Frames: 5
Frame Time: 0.016667
0.663892 87.707008 8.863857 -1.462123 1.587044 -14.123267 2.819910 -0.229068 8.151253 0.341317 -0.018731 2.388468 -0.948485 -0.868713 6.068818 -1.432208 -0.401527 5.004640 3.840181 -3.750356 6.918106 -0.344799 -2.353049 -2.347151 0.428572 -0.801481 -21.933025 0.000000 0.000000 0.000000 88.413216 0.368067 10.400804 52.169647 -6.953920 12.976927 -0.867194 16.538641 78.584915 13.709901 32.332943 -0.065509 8.507139 -1.616664 40.855766 0.000001 0.000011 -20.931654 0.000011 0.000050 -14.372272 0.000002 0.000001 -0.000011 3.142129 0.152906 0.585068 2.844540 -0.022236 0.102483 2.805433 -0.009839 0.068260 -0.000020 0.000046 -0.000015 3.152041 0.035481 -3.129907 2.771091 -0.022887 0.029913 2.956861 -0.001295 0.028287 -0.000007 0.000096 0.000001 6.009832 -0.049702 -8.681114 4.109690 0.023056 -0.066939 4.183371 0.007513 -0.036915 0.000015 0.001370 0.000000 8.701710 -0.059838 -15.323653 5.646110 0.106466 -0.091807 5.699368 0.001787 -0.167724 -0.000709 0.000010 -0.000016 0.000000 0.000000 0.000000 0.000000 0.000000 0.000000 -86.549423 -0.792207 6.365998 -69.002640 0.529953 0.023908 -0.634017 -17.702290 92.992729 -50.935608 -56.997032 30.524277 -6.468802 1.281303 41.792744 -0.000010 0.000001 -15.660431 -0.000201 -0.000023 -11.033653 0.000953 0.000007 -0.000590 5.247712 0.126848 2.949843 -0.696388 -0.089718 -0.293577 -0.876933 -0.069757 -0.217975 0.000016 -0.000000 -0.000010 2.571041 0.039422 -2.193583 -1.216805 -0.044611 -0.109741 -1.095056 -0.019623 -0.093862 -0.000095 0.000011 0.000005 -4.669101 -0.048613 -9.511668 -4.211199 0.074984 0.145896 -3.949136 0.026954 0.103389 0.000046 0.000010 -0.000005 -10.893640 -0.134293 -17.200050 -7.931842 0.167481 0.475306 -8.100627 0.082397 0.300176 -0.000288 0.000010 -0.000040 0.000000 0.000000 0.000000 0.000000 0.000000 0.000000 -0.770786 -16.948780 20.005022 -0.032154 -0.445781 4.605234 -2.457545 -13.251239 15.620630 -0.860734 0.882636 -16.713858 0.000000 0.000000 0.000000 0.000000 0.000000 0.000000 0.000000 0.000000 0.000000 9.130322 -3.446904 10.952918 0.317150 1.255279 14.119677 -3.725278 -0.880734 15.227962 0.956890 -0.997677 -19.780521 0.000000 0.000000 0.000000 0.000000 0.000000 0.000000 0.000000 0.000000 0.000000 
0.519305 87.691093 8.872418 -1.523316 1.764150 -14.183482 2.836869 -0.234455 8.170677 0.319572 -0.016889 2.341276 -0.906984 -0.970510 6.060749 -1.426649 -0.431210 5.017688 3.821182 -3.733137 6.821051 -0.339512 -2.316557 -2.368154 0.390712 -0.824702 -21.932985 0.000000 0.000000 0.000000 88.230385 0.412087 10.379381 51.585735 -7.333630 13.455541 -0.895626 16.312140 79.001617 12.901044 30.625650 -0.565338 8.349419 -1.596998 40.929684 0.000001 0.000010 -20.570511 0.000011 0.000050 -14.115273 0.000002 0.000001 -0.000011 2.389533 0.145897 0.680716 2.570876 -0.018960 0.104420 2.534408 -0.007591 0.072836 -0.000020 0.000045 -0.000015 2.339130 0.033615 -3.127953 2.470517 -0.022365 0.033044 2.657110 -0.001147 0.030959 -0.000007 0.000099 0.000001 5.014540 -0.047814 -8.798926 3.727344 0.021498 -0.074949 3.804801 0.007492 -0.043082 0.000015 0.001435 -0.000000 7.680527 -0.050242 -15.524669 5.218602 0.103654 -0.130294 5.286824 0.002448 -0.202312 -0.000693 0.000010 -0.000017 0.000000 0.000000 0.000000 0.000000 0.000000 0.000000 -86.356949 -0.848204 6.486689 -68.274017 1.625639 0.214282 -0.601554 -17.458284 92.905266 -50.517273 -55.481014 29.041853 -6.473995 1.283772 41.786484 -0.000009 0.000001 -15.688300 -0.000196 -0.000023 -11.051574 0.000935 0.000008 -0.000569 5.138351 0.120755 2.844126 -0.723011 -0.087665 -0.289355 -0.901813 -0.067694 -0.216891 0.000016 0.000005 -0.000010 2.489941 0.036930 -2.333441 -1.227308 -0.043588 -0.109182 -1.107800 -0.019104 -0.093751 -0.000080 0.000012 0.000001 -4.678384 -0.046711 -9.715301 -4.225199 0.073223 0.146536 -3.962513 0.026302 0.104916 0.000026 0.000011 -0.000005 -10.837926 -0.122773 -17.416119 -7.928278 0.163326 0.482451 -8.098323 0.080558 0.307730 -0.000286 0.000010 -0.000040 0.000000 0.000000 0.000000 0.000000 0.000000 0.000000 -0.645554 -17.120041 20.134329 -0.030849 -0.436062 4.498157 -2.544698 -13.302383 15.572253 -0.857942 0.885096 -16.634451 0.000000 0.000000 0.000000 0.000000 0.000000 0.000000 0.000000 0.000000 0.000000 9.241594 -3.527254 10.917449 0.321118 1.271020 14.187144 -3.780911 -0.965163 15.181760 0.973036 -0.992518 -19.745878 0.000000 0.000000 0.000000 0.000000 0.000000 0.000000 0.000000 0.000000 0.000000 
0.379120 87.673004 8.878263 -1.573461 1.939459 -14.214546 2.841967 -0.243431 8.182122 0.289703 -0.016867 2.287933 -0.861728 -1.092639 6.043001 -1.403559 -0.471643 5.016593 3.811551 -3.711461 6.723766 -0.329435 -2.263426 -2.391217 0.347066 -0.850366 -21.931959 0.000000 0.000000 0.000000 88.038528 0.461563 10.342940 50.961391 -7.622379 13.915446 -0.934953 16.077789 79.652466 11.995399 28.582647 -0.953612 8.186205 -1.575950 41.007259 0.000001 0.000009 -20.193834 0.000011 0.000049 -13.847946 0.000002 0.000000 -0.000010 1.576532 0.139856 0.834420 2.325982 -0.014143 0.099530 2.293918 -0.003713 0.071254 -0.000021 0.000045 -0.000014 1.464001 0.032119 -3.079678 2.198663 -0.021136 0.033423 2.386237 -0.000318 0.031399 -0.000006 0.000102 0.000001 3.955451 -0.046275 -8.896417 3.368471 0.018902 -0.078960 3.449900 0.006558 -0.046470 0.000016 0.001475 -0.000000 6.595764 -0.042408 -15.723047 4.806767 0.098127 -0.158155 4.892117 0.000704 -0.227406 -0.000690 0.000010 -0.000019 0.000000 0.000000 0.000000 0.000000 0.000000 0.000000 -86.152893 -0.913884 6.621568 -67.507927 2.741941 0.422415 -0.555654 -17.206945 92.737640 -49.894539 -53.835079 27.476749 -6.441823 1.281932 41.796680 -0.000009 0.000001 -15.632552 -0.000191 -0.000022 -11.007899 0.000924 0.000008 -0.000567 5.243064 0.115324 2.862188 -0.690566 -0.084336 -0.281093 -0.867129 -0.064347 -0.212025 0.000016 0.000042 -0.000009 2.600841 0.034794 -2.383778 -1.178329 -0.042036 -0.106903 -1.061242 -0.018183 -0.092129 -0.000042 0.000012 -0.000002 -4.505470 -0.045066 -9.869296 -4.166881 0.070728 0.144578 -3.903558 0.025007 0.104355 0.000018 0.000011 -0.000005 -10.596245 -0.111975 -17.628695 -7.848269 0.157298 0.481361 -8.019442 0.076954 0.308306 -0.000292 0.000009 -0.000039 0.000000 0.000000 0.000000 0.000000 0.000000 0.000000 -0.524659 -17.282730 20.237312 -0.029278 -0.427413 4.390958 -2.632564 -13.337282 15.521283 -0.853513 0.887832 -16.561132 0.000000 0.000000 0.000000 0.000000 0.000000 0.000000 0.000000 0.000000 0.000000 9.341133 -3.591835 10.854133 0.324883 1.286125 14.243537 -3.829491 -1.053831 15.154343 0.988849 -0.987144 -19.719761 0.000000 0.000000 0.000000 0.000000 0.000000 0.000000 0.000000 0.000000 0.000000 
0.244326 87.653755 8.879566 -1.613592 2.104655 -14.214648 2.836406 -0.256668 8.182579 0.249810 -0.018875 2.233802 -0.808600 -1.240445 6.009954 -1.361313 -0.525539 4.996778 3.811195 -3.680561 6.627361 -0.317102 -2.190161 -2.419360 0.297972 -0.875227 -21.933065 0.000000 0.000000 0.000000 87.848976 0.513154 10.293593 50.308796 -7.786753 14.364513 -0.984569 15.844506 80.519707 11.034797 26.236095 -1.213885 8.016932 -1.554258 41.088200 0.000001 0.000008 -19.797251 0.000011 0.000049 -13.567443 0.000002 0.000000 -0.000010 0.687213 0.134724 1.052590 2.088650 -0.008031 0.087698 2.062492 0.001707 0.062849 -0.000021 0.000044 -0.000014 0.512752 0.031040 -2.981616 1.936648 -0.019216 0.030766 2.126350 0.001193 0.029308 -0.000006 0.000105 0.000002 2.822308 -0.045072 -8.972838 3.017218 0.015366 -0.078480 3.103959 0.004728 -0.046708 0.000016 0.001492 0.000000 5.438602 -0.036197 -15.922739 4.399457 0.090221 -0.173416 4.503082 -0.003261 -0.241208 -0.000697 0.000010 -0.000020 0.000000 0.000000 0.000000 0.000000 0.000000 0.000000 -85.947220 -0.985433 6.770319 -66.744102 3.818465 0.645548 -0.498349 -16.950418 92.497498 -49.120045 -52.124001 25.906765 -6.374137 1.275843 41.822937 -0.000008 0.000001 -15.494997 -0.000185 -0.000022 -10.903778 0.000919 0.000008 -0.000585 5.567787 0.110564 3.002719 -0.607660 -0.079744 -0.268344 -0.782378 -0.059758 -0.202888 0.000016 0.000105 -0.000009 2.909825 0.033010 -2.341715 -1.080573 -0.039963 -0.102567 -0.965409 -0.016842 -0.088664 0.000023 0.000013 -0.000003 -4.154497 -0.043684 -9.959562 -4.046621 0.067506 0.139460 -3.782770 0.023063 0.101274 0.000025 0.000011 -0.000005 -10.178753 -0.102203 -17.818346 -7.701391 0.149496 0.470260 -7.872942 0.071642 0.300387 -0.000301 0.000009 -0.000038 0.000000 0.000000 0.000000 0.000000 0.000000 0.000000 -0.406214 -17.427706 20.306896 -0.027454 -0.419512 4.288751 -2.719946 -13.356938 15.472148 -0.846392 0.889542 -16.501835 0.000000 0.000000 0.000000 0.000000 0.000000 0.000000 0.000000 0.000000 0.000000 9.435067 -3.634014 10.768101 0.328575 1.300587 14.279180 -3.876909 -1.146118 15.152217 1.004083 -0.981792 -19.706194 0.000000 0.000000 0.000000 0.000000 0.000000 0.000000 0.000000 0.000000 0.000000 
0.116123 87.634972 8.875340 -1.646200 2.251146 -14.190230 2.826030 -0.274489 8.173582 0.199607 -0.022153 2.186918 -0.746520 -1.412144 5.954870 -1.304973 -0.591747 4.960546 3.816565 -3.639389 6.532965 -0.305252 -2.099363 -2.454099 0.245525 -0.897292 -21.937742 0.000000 0.000000 0.000000 87.664650 0.566268 10.236413 49.657173 -7.798358 14.800694 -1.044356 15.621642 81.577446 10.041886 23.609825 -1.345932 7.840425 -1.531918 41.173126 0.000001 0.000007 -19.375727 0.000012 0.000049 -13.270663 0.000002 0.000000 -0.000009 -0.289738 0.130358 1.331165 1.847257 -0.001339 0.070882 1.828083 0.008037 0.049008 -0.000021 0.000043 -0.000013 -0.524231 0.030348 -2.838554 1.673700 -0.016850 0.025680 1.867548 0.003181 0.025086 -0.000005 0.000108 0.000002 1.610640 -0.044116 -9.034572 2.664703 0.011274 -0.074127 2.758280 0.002258 -0.044210 0.000016 0.001484 0.000000 4.205996 -0.031179 -16.133524 3.990750 0.080954 -0.176973 4.112206 -0.008589 -0.244407 -0.000715 0.000010 -0.000021 0.000000 0.000000 0.000000 0.000000 0.000000 0.000000 -85.746971 -1.058150 6.926255 -66.034630 4.776048 0.867294 -0.435116 -16.699066 92.235153 -48.246826 -50.443150 24.420280 -6.278949 1.265791 41.862690 -0.000007 0.000001 -15.290897 -0.000178 -0.000022 -10.750646 0.000914 0.000009 -0.000622 6.079018 0.106297 3.239013 -0.499530 -0.074296 -0.251786 -0.673562 -0.054356 -0.190204 0.000015 0.000180 -0.000010 3.390274 0.031473 -2.223303 -0.959822 -0.037548 -0.096376 -0.846268 -0.015206 -0.083508 0.000107 0.000013 -0.000003 -3.656201 -0.042461 -9.987616 -3.891243 0.063791 0.131350 -3.626807 0.020653 0.095852 0.000046 0.000011 -0.000005 -9.620635 -0.093375 -17.977484 -7.512322 0.140506 0.449505 -7.683482 0.065178 0.284473 -0.000307 0.000009 -0.000038 0.000000 0.000000 0.000000 0.000000 0.000000 0.000000 -0.288905 -17.546118 20.344042 -0.025482 -0.412294 4.195882 -2.805298 -13.360682 15.429589 -0.836056 0.889380 -16.459209 0.000000 0.000000 0.000000 0.000000 0.000000 0.000000 0.000000 0.000000 0.000000 9.527182 -3.652338 10.672467 0.332218 1.314477 14.285012 -3.927167 -1.235427 15.176150 1.019268 -0.976931 -19.703724 0.000000 0.000000 0.000000 0.000000 0.000000 0.000000 0.000000 0.000000 0.000000 
